HIERARCHY
ROOT Hips
{
  OFFSET 0.0000 94.0000 0.0000
  CHANNELS 6 Xposition Yposition Zposition Yrotation Xrotation Zrotation
  JOINT Spine1
  {
    OFFSET 0.0000 7.1454 -3.3254
    CHANNELS 3 Yrotation Xrotation Zrotation
    JOINT Spine2
    {
      OFFSET 0.0000 -6.3952 0.0000
      CHANNELS 3 Yrotation Xrotation Zrotation
      JOINT Spine3
      {
        OFFSET 0.0000 -6.3952 0.0000
        CHANNELS 3 Yrotation Xrotation Zrotation
        JOINT Spine4
        {
          OFFSET 0.0000 -10.7988 0.0000
          CHANNELS 3 Yrotation Xrotation Zrotation
          JOINT Neck
          {
            OFFSET 0.0000 -17.0683 0.0000
            CHANNELS 3 Yrotation Xrotation Zrotation
            JOINT Head
            {
              OFFSET 0.0000 -9.2515 0.0000
              CHANNELS 3 Yrotation Xrotation Zrotation
              JOINT HeadTip
              {
                OFFSET 0.0000 -14.0458 0.0000
                CHANNELS 3 Yrotation Xrotation Zrotation
                End Site
                {
                  OFFSET 0.0000 -7.0229 0.0000
                }
              }
            }
          }
          JOINT RightShoulder
          {
            OFFSET 5.9293 -10.4763 1.6126
            CHANNELS 3 Yrotation Xrotation Zrotation
            JOINT RightArm
            {
              OFFSET 0.0000 -11.2315 0.0000
              CHANNELS 3 Yrotation Xrotation Zrotation
              JOINT RightForeArm
              {
                OFFSET 0.0000 -25.9819 0.0000
                CHANNELS 3 Yrotation Xrotation Zrotation
                JOINT RightHand
                {
                  OFFSET 0.0000 -24.2103 0.0000
                  CHANNELS 3 Yrotation Xrotation Zrotation
                  JOINT RightFinger1Metacarpal
                  {
                    OFFSET -2.3342 -1.7417 0.0863
                    CHANNELS 3 Yrotation Xrotation Zrotation
                    JOINT RightFinger1Proximal
                    {
                      OFFSET 0.0000 -3.3190 0.0000
                      CHANNELS 3 Yrotation Xrotation Zrotation
                      JOINT RightFinger1Distal
                      {
                        OFFSET 0.0000 -2.5192 0.0000
                        CHANNELS 3 Yrotation Xrotation Zrotation
                        JOINT RightFinger1Tip
                        {
                          OFFSET 0.0000 -2.8779 0.0000
                          CHANNELS 3 Yrotation Xrotation Zrotation
                          End Site
                          {
                            OFFSET 0.0000 -1.4390 0.0000
                          }
                        }
                      }
                    }
                  }
                  JOINT RightFinger5Metacarpal
                  {
                    OFFSET 1.2469 -2.0852 0.0863
                    CHANNELS 3 Yrotation Xrotation Zrotation
                    JOINT RightFinger5Proximal
                    {
                      OFFSET 0.0000 -4.0375 0.0000
                      CHANNELS 3 Yrotation Xrotation Zrotation
                      JOINT RightFinger5Medial
                      {
                        OFFSET 0.0000 -2.9773 0.0000
                        CHANNELS 3 Yrotation Xrotation Zrotation
                        JOINT RightFinger5Distal
                        {
                          OFFSET 0.0000 -1.8714 0.0000
                          CHANNELS 3 Yrotation Xrotation Zrotation
                          JOINT RightFinger5Tip
                          {
                            OFFSET 0.0000 -1.9063 0.0000
                            CHANNELS 3 Yrotation Xrotation Zrotation
                            End Site
                            {
                              OFFSET 0.0000 -0.9531 0.0000
                            }
                          }
                        }
                      }
                    }
                  }
                  JOINT RightFinger4Metacarpal
                  {
                    OFFSET 0.4589 -2.2990 0.0863
                    CHANNELS 3 Yrotation Xrotation Zrotation
                    JOINT RightFinger4Proximal
                    {
                      OFFSET 0.0000 -4.3063 0.0000
                      CHANNELS 3 Yrotation Xrotation Zrotation
                      JOINT RightFinger4Medial
                      {
                        OFFSET 0.0000 -3.6795 0.0000
                        CHANNELS 3 Yrotation Xrotation Zrotation
                        JOINT RightFinger4Distal
                        {
                          OFFSET 0.0000 -2.3730 0.0000
                          CHANNELS 3 Yrotation Xrotation Zrotation
                          JOINT RightFinger4Tip
                          {
                            OFFSET 0.0000 -2.3104 0.0000
                            CHANNELS 3 Yrotation Xrotation Zrotation
                            End Site
                            {
                              OFFSET 0.0000 -1.1552 0.0000
                            }
                          }
                        }
                      }
                    }
                  }
                  JOINT RightFinger3Metacarpal
                  {
                    OFFSET -0.4566 -2.3195 0.0863
                    CHANNELS 3 Yrotation Xrotation Zrotation
                    JOINT RightFinger3Proximal
                    {
                      OFFSET 0.0000 -4.4967 0.0000
                      CHANNELS 3 Yrotation Xrotation Zrotation
                      JOINT RightFinger3Medial
                      {
                        OFFSET 0.0000 -3.9393 0.0000
                        CHANNELS 3 Yrotation Xrotation Zrotation
                        JOINT RightFinger3Distal
                        {
                          OFFSET 0.0000 -2.5983 0.0000
                          CHANNELS 3 Yrotation Xrotation Zrotation
                          JOINT RightFinger3Tip
                          {
                            OFFSET 0.0000 -2.5130 0.0000
                            CHANNELS 3 Yrotation Xrotation Zrotation
                            End Site
                            {
                              OFFSET 0.0000 -1.2565 0.0000
                            }
                          }
                        }
                      }
                    }
                  }
                  JOINT RightFinger2Metacarpal
                  {
                    OFFSET -1.3439 -2.2174 0.0863
                    CHANNELS 3 Yrotation Xrotation Zrotation
                    JOINT RightFinger2Proximal
                    {
                      OFFSET 0.0000 -4.6165 0.0000
                      CHANNELS 3 Yrotation Xrotation Zrotation
                      JOINT RightFinger2Medial
                      {
                        OFFSET 0.0000 -3.8372 0.0000
                        CHANNELS 3 Yrotation Xrotation Zrotation
                        JOINT RightFinger2Distal
                        {
                          OFFSET 0.0000 -2.3608 0.0000
                          CHANNELS 3 Yrotation Xrotation Zrotation
                          JOINT RightFinger2Tip
                          {
                            OFFSET 0.0000 -2.3136 0.0000
                            CHANNELS 3 Yrotation Xrotation Zrotation
                            End Site
                            {
                              OFFSET 0.0000 -1.1568 0.0000
                            }
                          }
                        }
                      }
                    }
                  }
                }
              }
            }
          }
          JOINT LeftShoulder
          {
            OFFSET -5.9293 -10.4763 1.6126
            CHANNELS 3 Yrotation Xrotation Zrotation
            JOINT LeftArm
            {
              OFFSET 0.0000 -11.2315 0.0000
              CHANNELS 3 Yrotation Xrotation Zrotation
              JOINT LeftForeArm
              {
                OFFSET 0.0001 -25.9819 0.0000
                CHANNELS 3 Yrotation Xrotation Zrotation
                JOINT LeftHand
                {
                  OFFSET 0.0000 -24.2103 0.0000
                  CHANNELS 3 Yrotation Xrotation Zrotation
                  JOINT LeftFinger5Metacarpal
                  {
                    OFFSET -1.2468 -2.0852 0.0863
                    CHANNELS 3 Yrotation Xrotation Zrotation
                    JOINT LeftFinger5Proximal
                    {
                      OFFSET 0.0000 -4.0375 0.0000
                      CHANNELS 3 Yrotation Xrotation Zrotation
                      JOINT LeftFinger5Medial
                      {
                        OFFSET 0.0000 -2.9773 0.0000
                        CHANNELS 3 Yrotation Xrotation Zrotation
                        JOINT LeftFinger5Distal
                        {
                          OFFSET 0.0000 -1.8714 0.0000
                          CHANNELS 3 Yrotation Xrotation Zrotation
                          JOINT LeftFinger5Tip
                          {
                            OFFSET 0.0000 -1.9063 0.0000
                            CHANNELS 3 Yrotation Xrotation Zrotation
                            End Site
                            {
                              OFFSET 0.0000 -0.9531 0.0000
                            }
                          }
                        }
                      }
                    }
                  }
                  JOINT LeftFinger4Metacarpal
                  {
                    OFFSET -0.4589 -2.2990 0.0863
                    CHANNELS 3 Yrotation Xrotation Zrotation
                    JOINT LeftFinger4Proximal
                    {
                      OFFSET 0.0000 -4.3063 0.0000
                      CHANNELS 3 Yrotation Xrotation Zrotation
                      JOINT LeftFinger4Medial
                      {
                        OFFSET 0.0000 -3.6795 0.0000
                        CHANNELS 3 Yrotation Xrotation Zrotation
                        JOINT LeftFinger4Distal
                        {
                          OFFSET 0.0000 -2.3730 0.0000
                          CHANNELS 3 Yrotation Xrotation Zrotation
                          JOINT LeftFinger4Tip
                          {
                            OFFSET 0.0000 -2.3104 0.0000
                            CHANNELS 3 Yrotation Xrotation Zrotation
                            End Site
                            {
                              OFFSET 0.0000 -1.1552 0.0000
                            }
                          }
                        }
                      }
                    }
                  }
                  JOINT LeftFinger3Metacarpal
                  {
                    OFFSET 0.4566 -2.3195 0.0863
                    CHANNELS 3 Yrotation Xrotation Zrotation
                    JOINT LeftFinger3Proximal
                    {
                      OFFSET 0.0000 -4.4967 0.0000
                      CHANNELS 3 Yrotation Xrotation Zrotation
                      JOINT LeftFinger3Medial
                      {
                        OFFSET 0.0000 -3.9393 0.0000
                        CHANNELS 3 Yrotation Xrotation Zrotation
                        JOINT LeftFinger3Distal
                        {
                          OFFSET 0.0000 -2.5983 0.0000
                          CHANNELS 3 Yrotation Xrotation Zrotation
                          JOINT LeftFinger3Tip
                          {
                            OFFSET 0.0000 -2.5130 0.0000
                            CHANNELS 3 Yrotation Xrotation Zrotation
                            End Site
                            {
                              OFFSET 0.0000 -1.2565 0.0000
                            }
                          }
                        }
                      }
                    }
                  }
                  JOINT LeftFinger2Metacarpal
                  {
                    OFFSET 1.3439 -2.2174 0.0863
                    CHANNELS 3 Yrotation Xrotation Zrotation
                    JOINT LeftFinger2Proximal
                    {
                      OFFSET 0.0000 -4.6165 0.0000
                      CHANNELS 3 Yrotation Xrotation Zrotation
                      JOINT LeftFinger2Medial
                      {
                        OFFSET 0.0000 -3.8372 0.0000
                        CHANNELS 3 Yrotation Xrotation Zrotation
                        JOINT LeftFinger2Distal
                        {
                          OFFSET 0.0000 -2.3608 0.0000
                          CHANNELS 3 Yrotation Xrotation Zrotation
                          JOINT LeftFinger2Tip
                          {
                            OFFSET 0.0000 -2.3136 0.0000
                            CHANNELS 3 Yrotation Xrotation Zrotation
                            End Site
                            {
                              OFFSET 0.0000 -1.1568 0.0000
                            }
                          }
                        }
                      }
                    }
                  }
                  JOINT LeftFinger1Metacarpal
                  {
                    OFFSET 2.3341 -1.7417 0.0863
                    CHANNELS 3 Yrotation Xrotation Zrotation
                    JOINT LeftFinger1Proximal
                    {
                      OFFSET 0.0000 -3.3190 0.0000
                      CHANNELS 3 Yrotation Xrotation Zrotation
                      JOINT LeftFinger1Distal
                      {
                        OFFSET 0.0000 -2.5192 0.0000
                        CHANNELS 3 Yrotation Xrotation Zrotation
                        JOINT LeftFinger1Tip
                        {
                          OFFSET 0.0000 -2.8779 0.0000
                          CHANNELS 3 Yrotation Xrotation Zrotation
                          End Site
                          {
                            OFFSET 0.0000 -1.4390 0.0000
                          }
                        }
                      }
                    }
                  }
                }
              }
            }
          }
        }
      }
    }
  }
  JOINT RightThigh
  {
    OFFSET -6.8220 0.0000 0.0000
    CHANNELS 3 Yrotation Xrotation Zrotation
    JOINT RightShin
    {
      OFFSET 0.0000 -40.4101 0.0000
      CHANNELS 3 Yrotation Xrotation Zrotation
      JOINT RightFoot
      {
        OFFSET 0.0000 -43.9821 -0.0635
        CHANNELS 3 Yrotation Xrotation Zrotation
        JOINT RightToe
        {
          OFFSET 0.0000 -11.3267 5.3664
          CHANNELS 3 Yrotation Xrotation Zrotation
          JOINT RightToeTip
          {
            OFFSET 0.0000 -6.4039 1.0812
            CHANNELS 3 Yrotation Xrotation Zrotation
            End Site
            {
              OFFSET 0.0000 -3.2019 0.5406
            }
          }
        }
      }
    }
  }
  JOINT LeftThigh
  {
    OFFSET 6.8220 0.0000 0.0000
    CHANNELS 3 Yrotation Xrotation Zrotation
    JOINT LeftShin
    {
      OFFSET 0.0000 -40.4101 0.0000
      CHANNELS 3 Yrotation Xrotation Zrotation
      JOINT LeftFoot
      {
        OFFSET 0.0000 -43.9821 -0.0636
        CHANNELS 3 Yrotation Xrotation Zrotation
        JOINT LeftToe
        {
          OFFSET 0.0000 -11.3267 5.3664
          CHANNELS 3 Yrotation Xrotation Zrotation
          JOINT LeftToeTip
          {
            OFFSET 0.0000 -6.4039 1.0812
            CHANNELS 3 Yrotation Xrotation Zrotation
            End Site
            {
              OFFSET 0.0000 -3.2019 0.5406
            }
          }
        }
      }
    }
  }
}
MOTION
Frames: 5
Frame Time: 0.010000
-0.4685 37.9445 0.8122 -1.0107 21.2471 3.0707 -0.1181 25.7838 -179.6166 0.0356 -6.0161 0.0950 0.0356 -6.0161 0.0950 0.0356 -6.0161 0.0950 -1.0566 -14.3052 -3.0497 0.0000 0.0000 0.0000 0.0000 0.0000 0.0000 18.5053 0.7707 88.6062 82.3832 -2.9241 -73.4527 -3.6250 5.7242 -74.9383 37.7418 59.7828 22.4582 40.8933 20.7046 -22.2077 -4.1067 -20.7048 22.2077 0.0000 0.0000 0.0000 0.0000 0.0000 0.0000 -0.0001 -0.0001 20.0000 7.1163 -18.7971 -21.1794 0.0000 -20.0535 0.0000 0.0000 -20.0535 0.0000 0.0000 0.0000 0.0000 0.0000 -0.0001 10.0000 3.6268 -19.7361 -10.6311 0.0000 -20.0535 0.0000 0.0000 -20.0535 0.0000 0.0000 0.0000 0.0000 0.0000 0.0000 0.0000 0.0000 -20.0535 0.0000 0.0000 -20.0535 0.0000 0.0000 -20.0535 0.0000 0.0000 0.0000 0.0000 0.0000 -0.0001 -10.0001 -3.6271 -19.7360 10.6312 0.0000 -20.0535 0.0000 0.0000 -20.0535 0.0000 0.0000 0.0000 0.0000 -18.2216 1.6173 -85.9497 -70.7074 -25.1912 55.3722 4.1538 6.3604 94.3580 -34.3918 60.3856 -16.8545 0.0001 -0.0001 -20.0000 -7.1163 -18.7970 21.1794 0.0000 -20.0535 0.0000 0.0000 -20.0535 0.0000 0.0000 0.0000 0.0000 0.0000 -0.0001 -9.9999 -3.6271 -19.7360 10.6311 0.0000 -20.0535 0.0000 0.0000 -20.0535 0.0000 0.0000 0.0000 0.0000 0.0000 0.0000 0.0000 0.0000 -20.0535 0.0000 0.0000 -20.0535 0.0000 0.0000 -20.0535 0.0000 0.0000 0.0000 0.0000 0.0000 0.0000 10.0000 3.6268 -19.7361 -10.6312 0.0000 -20.0535 0.0000 0.0000 -20.0535 0.0000 0.0000 0.0000 0.0000 -40.8933 20.7047 22.2076 4.1067 -20.7047 -22.2077 0.0000 0.0000 0.0000 0.0000 0.0000 0.0000 70.4482 -4.5583 -108.8434 0.0001 0.0004 141.7702 -99.3884 53.9079 169.0741 0.0000 9.1171 0.0000 0.0000 0.0000 0.0000 -65.7466 -4.0716 108.2274 -0.0002 -0.0035 -141.2798 91.2245 61.9100 -175.0708 0.0000 16.2090 0.0000 0.0000 0.0000 0.0000 
-0.4156 37.8578 0.7978 -1.0596 21.1628 3.0429 -0.3697 25.7850 -179.7839 0.0871 -6.0162 0.0705 0.0871 -6.0162 0.0705 0.0871 -6.0162 0.0705 -1.1809 -14.2504 -3.3110 0.0000 0.0000 0.0000 0.0000 0.0000 0.0000 18.3686 0.7153 88.7381 82.1666 -2.8437 -73.3411 -3.7884 5.7855 -76.0152 38.0416 60.0633 22.3978 40.8933 20.7046 -22.2077 -4.1067 -20.7048 22.2077 0.0000 0.0000 0.0000 0.0000 0.0000 0.0000 -0.0001 -0.0001 20.0000 7.1163 -18.7971 -21.1794 0.0000 -20.0535 0.0000 0.0000 -20.0535 0.0000 0.0000 0.0000 0.0000 0.0000 -0.0001 10.0000 3.6268 -19.7361 -10.6311 0.0000 -20.0535 0.0000 0.0000 -20.0535 0.0000 0.0000 0.0000 0.0000 0.0000 0.0000 0.0000 0.0000 -20.0535 0.0000 0.0000 -20.0535 0.0000 0.0000 -20.0535 0.0000 0.0000 0.0000 0.0000 0.0000 -0.0001 -10.0001 -3.6271 -19.7360 10.6312 0.0000 -20.0535 0.0000 0.0000 -20.0535 0.0000 0.0000 0.0000 0.0000 -18.3264 1.7804 -85.4922 -70.9894 -25.6567 55.3160 3.9312 6.3334 93.3726 -34.2045 60.1950 -16.9751 0.0001 -0.0001 -20.0000 -7.1163 -18.7970 21.1794 0.0000 -20.0535 0.0000 0.0000 -20.0535 0.0000 0.0000 0.0000 0.0000 0.0000 -0.0001 -9.9999 -3.6271 -19.7360 10.6311 0.0000 -20.0535 0.0000 0.0000 -20.0535 0.0000 0.0000 0.0000 0.0000 0.0000 0.0000 0.0000 0.0000 -20.0535 0.0000 0.0000 -20.0535 0.0000 0.0000 -20.0535 0.0000 0.0000 0.0000 0.0000 0.0000 0.0000 10.0000 3.6268 -19.7361 -10.6312 0.0000 -20.0535 0.0000 0.0000 -20.0535 0.0000 0.0000 0.0000 0.0000 -40.8933 20.7047 22.2076 4.1067 -20.7047 -22.2077 0.0000 0.0000 0.0000 0.0000 0.0000 0.0000 70.6207 -4.3190 -109.0470 0.0001 0.0006 141.9163 -99.1590 54.2365 169.2978 0.0000 9.1609 0.0000 0.0000 0.0000 0.0000 -65.6672 -4.1605 108.3315 -0.0002 -0.0034 -141.4382 91.5221 62.0424 -174.8156 0.0000 16.2309 0.0000 0.0000 0.0000 0.0000 
-0.3626 37.7711 0.7834 -1.0100 21.0800 3.0365 -0.6320 25.7843 -179.9700 0.1407 -6.0162 0.0424 0.1407 -6.0162 0.0424 0.1407 -6.0162 0.0424 -1.3241 -14.1389 -3.5934 0.0000 0.0000 0.0000 0.0000 0.0000 0.0000 18.2400 0.6713 88.8401 81.9258 -2.8468 -73.1876 -3.9759 5.8454 -77.1621 38.3719 60.3519 22.3250 40.8933 20.7046 -22.2077 -4.1067 -20.7048 22.2077 0.0000 0.0000 0.0000 0.0000 0.0000 0.0000 -0.0001 -0.0001 20.0000 7.1163 -18.7971 -21.1794 0.0000 -20.0535 0.0000 0.0000 -20.0535 0.0000 0.0000 0.0000 0.0000 0.0000 -0.0001 10.0000 3.6268 -19.7361 -10.6311 0.0000 -20.0535 0.0000 0.0000 -20.0535 0.0000 0.0000 0.0000 0.0000 0.0000 0.0000 0.0000 0.0000 -20.0535 0.0000 0.0000 -20.0535 0.0000 0.0000 -20.0535 0.0000 0.0000 0.0000 0.0000 0.0000 -0.0001 -10.0001 -3.6271 -19.7360 10.6312 0.0000 -20.0535 0.0000 0.0000 -20.0535 0.0000 0.0000 0.0000 0.0000 -18.4379 1.9766 -84.9449 -71.4579 -25.9588 55.4750 3.7583 6.2792 92.0602 -33.9444 59.9182 -17.1289 0.0001 -0.0001 -20.0000 -7.1163 -18.7970 21.1794 0.0000 -20.0535 0.0000 0.0000 -20.0535 0.0000 0.0000 0.0000 0.0000 0.0000 -0.0001 -9.9999 -3.6271 -19.7360 10.6311 0.0000 -20.0535 0.0000 0.0000 -20.0535 0.0000 0.0000 0.0000 0.0000 0.0000 0.0000 0.0000 0.0000 -20.0535 0.0000 0.0000 -20.0535 0.0000 0.0000 -20.0535 0.0000 0.0000 0.0000 0.0000 0.0000 0.0000 10.0000 3.6268 -19.7361 -10.6312 0.0000 -20.0535 0.0000 0.0000 -20.0535 0.0000 0.0000 0.0000 0.0000 -40.8933 20.7047 22.2076 4.1067 -20.7047 -22.2077 0.0000 0.0000 0.0000 0.0000 0.0000 0.0000 70.7310 -4.0663 -109.2387 0.0001 0.0007 142.0677 -98.9008 54.6119 169.5608 0.0000 9.2248 0.0000 0.0000 0.0000 0.0000 -65.5630 -4.3206 108.4544 -0.0002 -0.0034 -141.5906 91.9681 62.2188 -174.3830 0.0000 16.2415 0.0000 0.0000 0.0000 0.0000 
-0.3148 37.6704 0.7530 -0.9603 20.9972 3.0301 -0.8942 25.7828 179.8440 0.1942 -6.0161 0.0142 0.1942 -6.0161 0.0142 0.1942 -6.0161 0.0142 -1.4677 -14.0282 -3.8759 0.0000 0.0000 0.0000 0.0000 0.0000 0.0000 18.1112 0.6275 88.9422 81.6849 -2.8492 -73.0341 -4.1646 5.9016 -78.3094 38.7045 60.6407 22.2549 40.8933 20.7046 -22.2077 -4.1067 -20.7048 22.2077 0.0000 0.0000 0.0000 0.0000 0.0000 0.0000 -0.0001 -0.0001 20.0000 7.1163 -18.7971 -21.1794 0.0000 -20.0535 0.0000 0.0000 -20.0535 0.0000 0.0000 0.0000 0.0000 0.0000 -0.0001 10.0000 3.6268 -19.7361 -10.6311 0.0000 -20.0535 0.0000 0.0000 -20.0535 0.0000 0.0000 0.0000 0.0000 0.0000 0.0000 0.0000 0.0000 -20.0535 0.0000 0.0000 -20.0535 0.0000 0.0000 -20.0535 0.0000 0.0000 0.0000 0.0000 0.0000 -0.0001 -10.0001 -3.6271 -19.7360 10.6312 0.0000 -20.0535 0.0000 0.0000 -20.0535 0.0000 0.0000 0.0000 0.0000 -18.5476 2.1739 -84.3978 -71.9285 -26.2598 55.6371 3.5867 6.2211 90.7480 -33.6851 59.6416 -17.2839 0.0001 -0.0001 -20.0000 -7.1163 -18.7970 21.1794 0.0000 -20.0535 0.0000 0.0000 -20.0535 0.0000 0.0000 0.0000 0.0000 0.0000 -0.0001 -9.9999 -3.6271 -19.7360 10.6311 0.0000 -20.0535 0.0000 0.0000 -20.0535 0.0000 0.0000 0.0000 0.0000 0.0000 0.0000 0.0000 0.0000 -20.0535 0.0000 0.0000 -20.0535 0.0000 0.0000 -20.0535 0.0000 0.0000 0.0000 0.0000 0.0000 0.0000 10.0000 3.6268 -19.7361 -10.6312 0.0000 -20.0535 0.0000 0.0000 -20.0535 0.0000 0.0000 0.0000 0.0000 -40.8933 20.7047 22.2076 4.1067 -20.7047 -22.2077 0.0000 0.0000 0.0000 0.0000 0.0000 0.0000 70.8515 -3.8291 -109.5493 0.0001 0.0008 142.2604 -98.6821 55.0620 169.7958 0.0000 9.2887 0.0000 0.0000 0.0000 0.0000 -65.4825 -4.5188 108.6570 -0.0002 -0.0033 -141.7658 92.5011 62.4481 -173.8984 0.0000 16.2520 0.0000 0.0000 0.0000 0.0000 
-0.2644 37.5767 0.7306 -0.9107 20.9144 3.0235 -1.1565 25.7806 179.6580 0.2478 -6.0161 -0.0140 0.2478 -6.0160 -0.0140 0.2478 -6.0161 -0.0140 -1.6119 -13.9181 -4.1587 0.0000 0.0000 0.0000 0.0000 0.0000 0.0000 17.9824 0.5840 89.0444 81.4441 -2.8509 -72.8807 -4.3544 5.9540 -79.4570 39.0394 60.9298 22.1877 40.8933 20.7046 -22.2077 -4.1067 -20.7048 22.2077 0.0000 0.0000 0.0000 0.0000 0.0000 0.0000 -0.0001 -0.0001 20.0000 7.1163 -18.7971 -21.1794 0.0000 -20.0535 0.0000 0.0000 -20.0535 0.0000 0.0000 0.0000 0.0000 0.0000 -0.0001 10.0000 3.6268 -19.7361 -10.6311 0.0000 -20.0535 0.0000 0.0000 -20.0535 0.0000 0.0000 0.0000 0.0000 0.0000 0.0000 0.0000 0.0000 -20.0535 0.0000 0.0000 -20.0535 0.0000 0.0000 -20.0535 0.0000 0.0000 0.0000 0.0000 0.0000 -0.0001 -10.0001 -3.6271 -19.7360 10.6312 0.0000 -20.0535 0.0000 0.0000 -20.0535 0.0000 0.0000 0.0000 0.0000 -18.6554 2.3723 -83.8511 -72.4014 -26.5595 55.8024 3.4165 6.1591 89.4361 -33.4264 59.3654 -17.4401 0.0001 -0.0001 -20.0000 -7.1163 -18.7970 21.1794 0.0000 -20.0535 0.0000 0.0000 -20.0535 0.0000 0.0000 0.0000 0.0000 0.0000 -0.0001 -9.9999 -3.6271 -19.7360 10.6311 0.0000 -20.0535 0.0000 0.0000 -20.0535 0.0000 0.0000 0.0000 0.0000 0.0000 0.0000 0.0000 0.0000 -20.0535 0.0000 0.0000 -20.0535 0.0000 0.0000 -20.0535 0.0000 0.0000 0.0000 0.0000 0.0000 0.0000 10.0000 3.6268 -19.7361 -10.6312 0.0000 -20.0535 0.0000 0.0000 -20.0535 0.0000 0.0000 0.0000 0.0000 -40.8933 20.7047 22.2076 4.1067 -20.7047 -22.2077 0.0000 0.0000 0.0000 0.0000 0.0000 0.0000 70.9652 -3.5813 -109.8004 0.0001 0.0009 142.4313 -98.4312 55.4760 170.0558 0.0000 9.3526 0.0000 0.0000 0.0000 0.0000 -65.3915 -4.7001 108.8196 -0.0002 -0.0033 -141.9289 93.0050 62.6490 -173.4266 0.0000 16.2626 0.0000 0.0000 0.0000 0.0000 
